HIERARCHY
ROOT Hips
{
	OFFSET 0.000000 0.000000 0.000000
	CHANNELS 6 Xposition Yposition Zposition Xrotation Yrotation Zrotation
	JOINT LeftUpLeg_virtual
	{
		OFFSET 0.000000 0.000000 0.000000
		CHANNELS 3 Xrotation Yrotation Zrotation
		JOINT LeftUpLeg
		{
			OFFSET 15.427100 -6.655098 0.678600
			CHANNELS 3 Xrotation Yrotation Zrotation
			JOINT LeftLeg
			{
				OFFSET 4.081073 -39.591068 13.024000
				CHANNELS 3 Xrotation Yrotation Zrotation
				JOINT LeftFoot
				{
					OFFSET -4.081074 -37.707932 -15.979700
					CHANNELS 3 Xrotation Yrotation Zrotation
					JOINT LeftToeBase
					{
						OFFSET 5.346399 -15.068900 20.645000
						CHANNELS 3 Xrotation Yrotation Zrotation
						JOINT LeftToe_End
						{
							OFFSET 2.754700 0.931300 11.300900
							CHANNELS 3 Xrotation Yrotation Zrotation
							End Site
							{
								OFFSET 0 0 0
							}
						}
					}
				}
			}
		}
	}
	JOINT RightUpLeg_virtual
	{
		OFFSET 0.000000 0.000000 0.000000
		CHANNELS 3 Xrotation Yrotation Zrotation
		JOINT RightUpLeg
		{
			OFFSET -15.569500 -6.655098 0.678600
			CHANNELS 3 Xrotation Yrotation Zrotation
			JOINT RightLeg
			{
				OFFSET -4.081825 -39.591045 13.023800
				CHANNELS 3 Xrotation Yrotation Zrotation
				JOINT RightFoot
				{
					OFFSET 4.081824 -37.707954 -15.979600
					CHANNELS 3 Xrotation Yrotation Zrotation
					JOINT RightToeBase
					{
						OFFSET -5.346400 -15.068900 20.645000
						CHANNELS 3 Xrotation Yrotation Zrotation
						JOINT RightToe_End
						{
							OFFSET -2.754700 0.931300 11.300900
							CHANNELS 3 Xrotation Yrotation Zrotation
							End Site
							{
								OFFSET 0 0 0
							}
						}
					}
				}
			}
		}
	}
	JOINT Spine_virtual
	{
		OFFSET 0.000000 0.000000 0.000000
		CHANNELS 3 Xrotation Yrotation Zrotation
		JOINT Spine
		{
			OFFSET -0.279200 12.230698 -2.892100
			CHANNELS 3 Xrotation Yrotation Zrotation
			JOINT Spine1
			{
				OFFSET -0.232667 10.192268 -1.242267
				CHANNELS 3 Xrotation Yrotation Zrotation
				JOINT Spine1_split
				{
					OFFSET -0.232667 10.192268 -1.242267
					CHANNELS 3 Xrotation Yrotation Zrotation
					JOINT Spine2
					{
						OFFSET -0.232667 10.192268 -1.242267
						CHANNELS 3 Xrotation Yrotation Zrotation
						JOINT Neck_virtual
						{
							OFFSET 0.000000 0.000000 0.000000
							CHANNELS 3 Xrotation Yrotation Zrotation
							JOINT Neck
							{
								OFFSET -0.418800 17.814194 8.416900
								CHANNELS 3 Xrotation Yrotation Zrotation
								JOINT Head
								{
									OFFSET 0.000000 7.031097 3.806800
									CHANNELS 3 Xrotation Yrotation Zrotation
									JOINT HeadTop_End
									{
										OFFSET 0.000000 24.646606 12.978600
										CHANNELS 3 Xrotation Yrotation Zrotation
										End Site
										{
											OFFSET 0 0 0
										}
									}
								}
							}
						}
						JOINT LeftShoulder_virtual
						{
							OFFSET 0.000000 0.000000 0.000000
							CHANNELS 3 Xrotation Yrotation Zrotation
							JOINT LeftShoulder
							{
								OFFSET 8.476499 7.247704 -3.868750
								CHANNELS 3 Xrotation Yrotation Zrotation
								JOINT LeftShoulder_split
								{
									OFFSET 8.476499 7.247704 -3.868750
									CHANNELS 3 Xrotation Yrotation Zrotation
									JOINT LeftArm
									{
										OFFSET 9.308998 -2.777710 0.208600
										CHANNELS 3 Xrotation Yrotation Zrotation
										JOINT LeftForeArm
										{
											OFFSET 29.972298 0.000000 0.000000
											CHANNELS 3 Xrotation Yrotation Zrotation
											JOINT LeftHand
											{
												OFFSET 26.026505 0.000000 0.000000
												CHANNELS 3 Xrotation Yrotation Zrotation
												End Site
												{
													OFFSET 0 0 0
												}
											}
										}
									}
								}
							}
						}
						JOINT RightShoulder_virtual
						{
							OFFSET 0.000000 0.000000 0.000000
							CHANNELS 3 Xrotation Yrotation Zrotation
							JOINT RightShoulder
							{
								OFFSET -7.570500 7.247704 -3.868750
								CHANNELS 3 Xrotation Yrotation Zrotation
								JOINT RightShoulder_split
								{
									OFFSET -7.570500 7.247704 -3.868750
									CHANNELS 3 Xrotation Yrotation Zrotation
									JOINT RightArm
									{
										OFFSET -9.308998 -2.777710 0.208500
										CHANNELS 3 Xrotation Yrotation Zrotation
										JOINT RightForeArm
										{
											OFFSET -29.972300 0.000000 0.000000
											CHANNELS 3 Xrotation Yrotation Zrotation
											JOINT RightHand
											{
												OFFSET -26.026505 0.000000 0.000000
												CHANNELS 3 Xrotation Yrotation Zrotation
												End Site
												{
													OFFSET 0 0 0
												}
											}
										}
									}
								}
							}
						}
					}
				}
			}
		}
	}
}
MOTION
Frames: 11
Frame Time: 0.03333333
-1.182308 90.288048 0.380859 0.000000 0.000000 0.000000 5.058384 -12.485990 0.113520 -15.397724 9.306104 15.979204 18.180102 4.620920 0.023390 -2.684293 6.221382 -12.763053 0.083524 -2.133389 -4.816483 0.000000 0.000000 0.000000 5.118563 -12.110882 0.348876 -4.831538 -7.882983 -10.774748 13.014324 -3.481107 0.411294 -14.250090 0.118661 9.015178 -6.292733 1.699979 2.950971 0.000000 0.000000 0.000000 5.724272 -9.857373 0.149422 10.010584 -0.334768 0.268838 1.974122 3.757309 0.005066 0.118175 -1.889045 0.414749 0.000000 0.000000 0.000000 -8.736649 2.377180 1.309553 -8.695731 5.723610 -6.216491 9.671409 -4.492800 13.739476 0.000000 0.000000 0.000000 -9.186862 2.343632 1.020788 -1.076927 5.793130 -4.588381 1.653421 -2.569584 -0.511459 -5.833124 -0.799603 -68.551774 -0.074642 -18.941158 -0.234099 0.000000 0.000000 0.000000 -8.960512 2.037042 0.965547 -1.532904 0.106157 5.622164 -3.367391 -3.187747 -0.576435 7.604735 10.720866 71.142847 -1.335600 23.409901 2.742353 0.000000 0.000000 0.000000 
-0.525700 90.036247 0.321804 0.000000 0.000000 0.000000 5.120968 -12.813760 0.238363 -15.388780 9.318738 15.625818 18.313317 4.663809 -0.050859 -3.101391 6.263424 -12.690003 0.027888 -2.160491 -4.610412 0.000000 0.000000 0.000000 5.144866 -12.049342 0.455915 -5.255751 -8.275931 -11.090531 13.451745 -3.637190 0.405737 -14.797357 -0.102174 8.364029 -4.823822 1.728709 2.858223 0.000000 0.000000 0.000000 5.640092 -10.191305 0.131256 10.044082 -0.468580 0.396840 2.041719 3.748826 -0.047455 -0.153340 -1.906962 0.304855 0.000000 0.000000 0.000000 -8.808858 2.302315 1.280264 -8.489483 5.242830 -6.145263 9.812170 -5.084315 14.480141 0.000000 0.000000 0.000000 -9.151064 2.306596 0.919186 -1.082469 5.974073 -4.653504 1.717319 -1.823072 -0.587499 -5.975428 -0.445876 -68.637015 -0.023381 -18.690498 -0.147848 0.000000 0.000000 0.000000 -8.918168 1.999441 0.940410 -1.470261 -0.076048 5.696930 -2.659922 -1.815099 -1.015985 8.449642 11.274946 70.692273 -1.191997 24.069042 2.625340 0.000000 0.000000 0.000000 
0.346054 89.686012 0.483269 0.000000 0.000000 0.000000 5.078069 -13.240521 0.358009 -15.711419 9.589776 15.276924 18.956464 4.700697 -0.082112 -3.726882 6.164657 -12.686819 -0.063305 -2.173374 -4.380512 0.000000 0.000000 0.000000 5.110695 -12.249988 0.564035 -5.846018 -8.594466 -11.566686 13.898018 -3.537556 0.288362 -15.005007 -0.571052 8.515764 -4.602310 1.703305 2.589558 0.000000 0.000000 0.000000 5.677439 -10.723091 0.199009 10.163152 -0.680361 0.552633 2.128089 3.794404 -0.114448 -0.281658 -1.728396 0.331604 0.000000 0.000000 0.000000 -8.811504 2.297425 1.221830 -8.770402 3.899793 -5.917787 10.600420 -7.439750 15.705574 0.000000 0.000000 0.000000 -9.148909 2.294318 0.810906 -1.168897 6.072136 -4.541740 1.807401 -1.080502 -0.511800 -5.410522 0.059807 -68.709763 -0.031602 -19.174902 -0.139364 0.000000 0.000000 0.000000 -8.880429 2.002535 0.913762 -1.344242 -0.496397 5.844678 -2.134328 -0.732654 -1.622300 10.181243 12.491209 69.964749 -0.849492 25.008434 2.326068 0.000000 0.000000 0.000000 
1.323016 89.314323 0.735580 0.000000 0.000000 0.000000 5.012759 -13.733367 0.470476 -16.322349 10.057419 14.949799 19.896034 4.808762 -0.057264 -4.448830 5.987973 -12.669688 -0.178625 -2.170005 -4.135015 0.000000 0.000000 0.000000 5.065616 -12.658419 0.661840 -6.469381 -8.740188 -12.132696 14.137476 -3.118842 0.152686 -14.613666 -1.035935 9.506856 -5.540680 1.623676 2.266363 0.000000 0.000000 0.000000 5.892950 -11.389824 0.303754 10.334513 -0.911874 0.695828 2.235435 3.847218 -0.198416 -0.212682 -1.484349 0.452856 0.000000 0.000000 0.000000 -8.715275 2.334444 1.129081 -9.544342 1.899250 -5.602376 11.832057 -11.161338 17.124550 0.000000 0.000000 0.000000 -9.150322 2.277552 0.696870 -1.322499 6.005742 -4.346231 2.041940 -0.546374 -0.381196 -4.070664 0.609434 -68.748559 -0.049285 -20.470015 -0.208532 0.000000 0.000000 0.000000 -8.850831 2.019414 0.884700 -1.144548 -1.163233 6.066597 -1.745351 -0.287114 -2.112999 12.323004 13.922241 69.174892 -0.414172 26.103923 1.927308 0.000000 0.000000 0.000000 
2.398274 89.011780 0.996044 0.000000 0.000000 0.000000 4.996628 -14.333987 0.556988 -17.098612 10.643513 14.648529 20.954341 5.099716 0.023674 -5.201368 5.903778 -12.501761 -0.294180 -2.152732 -3.890500 0.000000 0.000000 0.000000 5.078591 -13.213477 0.735052 -6.797641 -8.721424 -12.626688 13.835096 -2.572553 0.015982 -13.925146 -1.411299 10.585873 -6.134256 1.555188 2.067691 0.000000 0.000000 0.000000 6.260765 -12.240703 0.412424 10.514019 -1.096374 0.803342 2.360292 3.832005 -0.295520 0.052210 -0.980420 0.744013 0.000000 0.000000 0.000000 -8.531430 2.351719 1.004412 -10.724538 -0.528075 -5.251504 13.279976 -15.557841 18.340813 0.000000 0.000000 0.000000 -9.116271 2.212029 0.600879 -1.504844 5.744825 -4.196250 2.381225 -0.110038 -0.280310 -1.952235 1.211059 -68.721019 -0.023314 -22.530333 -0.320029 0.000000 0.000000 0.000000 -8.813156 2.007035 0.840518 -0.872387 -2.031586 6.361964 -1.491267 -0.268566 -2.332539 14.264766 15.199567 68.507904 0.009390 27.305659 1.537139 0.000000 0.000000 0.000000 
3.456798 88.814453 1.185242 0.000000 0.000000 0.000000 5.052611 -14.917307 0.591702 -17.919906 11.268340 14.377010 21.941935 5.630111 0.171496 -6.076076 6.065534 -12.074957 -0.365798 -2.122347 -3.667689 0.000000 0.000000 0.000000 5.163382 -13.832355 0.742078 -6.834189 -8.556051 -13.006846 12.926058 -2.067212 -0.100887 -13.342302 -1.642887 11.095910 -5.759507 1.541847 2.099935 0.000000 0.000000 0.000000 6.688078 -13.248743 0.472574 10.638925 -1.176251 0.877404 2.501005 3.685873 -0.401347 0.228179 -0.586168 0.997621 0.000000 0.000000 0.000000 -8.266683 2.278076 0.858755 -12.175319 -3.044509 -4.912225 14.652779 -19.984531 18.936985 0.000000 0.000000 0.000000 -9.018384 2.039189 0.517901 -1.680857 5.344626 -4.194314 2.644565 0.336413 -0.202733 0.703040 1.845925 -68.621934 0.077407 -25.237209 -0.435328 0.000000 0.000000 0.000000 -8.749135 1.889980 0.760821 -0.554282 -2.979986 6.684736 -1.388533 -0.437774 -2.331419 15.449553 16.181575 68.075853 0.353955 28.509906 1.243383 0.000000 0.000000 0.000000 
4.509939 88.713020 1.259941 0.000000 0.000000 0.000000 5.163944 -15.398755 0.546148 -18.684404 11.825658 14.069413 22.785723 6.350234 0.402878 -7.083923 6.527945 -11.458096 -0.434444 -2.081877 -3.476316 0.000000 0.000000 0.000000 5.369580 -14.471627 0.706175 -6.884801 -8.210097 -13.364766 11.839507 -1.481564 -0.189242 -12.786927 -1.526790 10.999592 -5.060723 1.614326 2.297609 0.000000 0.000000 0.000000 7.132687 -14.280513 0.502100 10.700133 -1.101018 0.922503 2.664041 3.352879 -0.508870 0.248397 -0.415999 1.110537 0.000000 0.000000 0.000000 -7.946991 2.042026 0.697779 -13.760547 -5.434507 -4.640636 15.769457 -24.105764 18.692390 0.000000 0.000000 0.000000 -8.826805 1.713305 0.446107 -1.838767 4.945524 -4.369749 2.883176 0.818320 -0.100833 3.665649 2.521540 -68.424384 0.225074 -28.470383 -0.511941 0.000000 0.000000 0.000000 -8.646511 1.614597 0.639553 -0.227934 -3.939812 6.907235 -1.289482 -0.685095 -2.244549 15.606829 17.051058 67.907469 0.613451 29.792015 1.076658 0.000000 0.000000 0.000000 
5.570798 88.675888 1.268005 0.000000 0.000000 0.000000 5.307869 -15.841925 0.407345 -19.423222 12.225602 13.748654 23.582258 7.147019 0.695238 -8.066888 7.244712 -10.833899 -0.617919 -2.041620 -3.282930 0.000000 0.000000 0.000000 5.642117 -15.181214 0.652760 -7.356922 -7.692288 -13.715522 11.235209 -0.714790 -0.176109 -11.866359 -0.946677 10.720302 -4.911645 1.742517 2.573635 0.000000 0.000000 0.000000 7.480660 -15.284556 0.531185 10.721160 -0.852510 0.949250 2.863786 2.818148 -0.614572 0.126251 -0.361688 1.085921 0.000000 0.000000 0.000000 -7.623205 1.596451 0.535797 -15.287314 -7.548553 -4.442857 16.448513 -27.453769 17.544514 0.000000 0.000000 0.000000 -8.528182 1.192738 0.377621 -1.953901 4.677035 -4.713673 3.161758 1.304274 0.070442 6.633454 3.269133 -68.176401 0.353444 -31.810045 -0.529495 0.000000 0.000000 0.000000 -8.479154 1.138272 0.485006 0.079305 -4.797441 6.969735 -1.241084 -0.969142 -2.031924 14.822081 18.178733 67.829946 0.821563 31.334172 1.025534 0.000000 0.000000 0.000000 
6.617651 88.588814 1.152248 0.000000 0.000000 0.000000 5.445873 -16.293054 0.227732 -20.185584 12.444715 13.384121 24.432061 7.896087 1.015230 -8.932848 8.065463 -10.316311 -0.937070 -2.011190 -3.049757 0.000000 0.000000 0.000000 5.929861 -15.868705 0.573637 -8.592875 -7.110312 -13.884491 11.623382 0.299622 -0.050060 -10.846495 0.047645 10.494041 -5.853582 1.844912 2.871993 0.000000 0.000000 0.000000 7.697329 -16.223465 0.558191 10.757845 -0.443786 0.979766 3.100503 2.087756 -0.707971 -0.114165 -0.346234 0.964664 0.000000 0.000000 0.000000 -7.317208 0.929765 0.390893 -16.591598 -9.295579 -4.313328 16.581621 -29.932594 15.700506 0.000000 0.000000 0.000000 -8.146986 0.475678 0.298688 -2.019636 4.643038 -5.146221 3.396809 1.514910 0.266100 9.304327 4.140735 -67.952159 0.378581 -34.778995 -0.503129 0.000000 0.000000 0.000000 -8.242298 0.446168 0.318475 0.345392 -5.514077 6.887344 -1.168905 -1.194727 -1.787610 13.420184 19.853738 67.724549 0.970940 33.185779 1.081287 0.000000 0.000000 0.000000 
7.660794 88.357651 1.037697 0.000000 0.000000 0.000000 5.587101 -16.817725 0.072074 -20.971792 12.536804 12.919324 25.374086 8.574018 1.321437 -9.672111 8.845724 -9.917149 -1.284125 -1.999398 -2.776349 0.000000 0.000000 0.000000 6.170667 -16.534660 0.495170 -10.388234 -6.595053 -13.606456 13.273858 1.424588 0.027569 -10.731087 1.224564 9.818630 -7.306857 1.866736 3.240584 0.000000 0.000000 0.000000 7.809679 -17.073350 0.604599 10.872087 0.066431 1.029579 3.385330 1.197763 -0.789394 -0.169118 -0.243878 0.878249 0.000000 0.000000 0.000000 -7.039844 0.083092 0.259442 -17.544382 -10.679982 -4.236734 16.143582 -31.640435 13.515343 0.000000 0.000000 0.000000 -7.744814 -0.399932 0.200104 -2.039683 4.883587 -5.628357 3.692675 1.567029 0.497048 11.474815 5.113401 -67.817631 0.296648 -37.074547 -0.438953 0.000000 0.000000 0.000000 -7.978306 -0.417332 0.153782 0.558899 -6.083540 6.696047 -1.099471 -1.302769 -1.606353 11.794000 22.028885 67.545394 1.018956 35.259001 1.244101 0.000000 0.000000 0.000000 
8.686932 87.969131 0.936085 0.000000 0.000000 0.000000 5.746940 -17.420927 -0.003136 -21.770212 12.578014 12.361346 26.361153 9.230469 1.590852 -10.387969 9.507281 -9.619585 -1.531366 -2.009754 -2.490850 0.000000 0.000000 0.000000 6.330688 -17.237285 0.447412 -12.352227 -6.399623 -12.843227 16.241935 2.227187 -0.031217 -12.146750 2.214619 7.616959 -7.894532 1.812527 3.806543 0.000000 0.000000 0.000000 7.851087 -17.849248 0.690063 11.063808 0.577840 1.101147 3.684800 0.224790 -0.864625 -0.063199 -0.252643 0.754743 0.000000 0.000000 0.000000 -6.795339 -0.862643 0.131789 -18.020010 -11.673465 -4.178629 15.215947 -32.733265 11.419918 0.000000 0.000000 0.000000 -7.378641 -1.361870 0.062446 -2.020872 5.347919 -6.069817 3.951275 1.598299 0.575407 12.908653 6.163431 -67.799121 0.124437 -38.521386 -0.334113 0.000000 0.000000 0.000000 -7.717983 -1.389098 -0.008823 0.716124 -6.516567 6.484645 -1.143244 -1.430871 -1.616912 10.279786 24.397670 67.336991 0.911235 37.404524 1.502562 0.000000 0.000000 0.000000 
